<?xml version="1.0" standalone="no"?>
<!DOCTYPE svg PUBLIC "-//W3C//DTD SVG 20010904//EN"
 "http://www.w3.org/TR/2001/REC-SVG-20010904/DTD/svg10.dtd">
<svg version="1.0" xmlns="http://www.w3.org/2000/svg"
 width="288.000000pt" height="469.000000pt" viewBox="0 0 288.000000 469.000000"
 preserveAspectRatio="xMidYMid meet">

<g transform="translate(0.000000,469.000000) scale(0.100000,-0.100000)"
fill="#000000" stroke="none">
<path d="M1000 4669 c-95 -16 -150 -63 -254 -216 -49 -73 -87 -135 -83 -139 3
-3 56 26 118 65 106 67 113 70 128 54 9 -10 52 -63 96 -118 44 -55 113 -139
153 -188 39 -48 72 -92 72 -97 0 -6 -41 -10 -95 -10 -90 0 -96 -1 -104 -22 -5
-13 -47 -239 -95 -503 -48 -264 -92 -482 -97 -486 -6 -3 -67 -11 -137 -18
-264 -25 -483 -71 -597 -126 -144 -69 -121 -137 67 -200 402 -134 1435 -175
2120 -85 435 58 648 150 557 241 -70 70 -347 140 -669 169 -69 6 -134 15 -146
20 -16 6 -25 26 -38 77 -38 152 -14 125 -246 283 -115 79 -210 148 -210 153 0
5 6 7 13 5 31 -12 357 -71 363 -66 4 4 -79 473 -112 625 -2 14 -108 110 -282
256 -152 129 -304 257 -337 285 -65 56 -75 59 -185 41z"/>
<path d="M482 4240 c-7 -11 -21 -20 -32 -20 -23 0 -27 -15 -5 -24 8 -3 15 -18
15 -33 0 -27 2 -28 48 -28 41 1 47 4 44 22 -1 11 4 26 13 33 21 17 19 30 -5
30 -11 0 -25 9 -32 20 -7 11 -17 20 -23 20 -6 0 -16 -9 -23 -20z"/>
<path d="M819 4238 c-13 -9 -14 -16 -5 -34 14 -31 50 -31 63 -1 9 19 8 26 -8
35 -22 14 -29 14 -50 0z"/>
<path d="M657 3994 c-13 -13 -7 -24 14 -24 11 0 19 5 17 12 -5 14 -22 21 -31
12z"/>
<path d="M1922 2490 c-59 -93 -73 -222 -42 -379 31 -157 26 -208 -31 -318 -25
-48 -52 -89 -59 -91 -9 -3 -11 1 -8 14 71 241 77 315 36 405 -35 77 -70 113
-140 148 -48 25 -74 31 -123 31 -34 0 -76 -5 -94 -11 -25 -9 -40 -8 -71 5 -54
22 -123 20 -168 -3 -59 -31 -145 -114 -172 -167 -39 -78 -40 -190 -1 -323 44
-151 25 -150 -50 3 -33 68 -39 89 -39 145 0 37 7 91 15 121 25 91 29 196 11
274 -29 122 -76 202 -76 129 0 -38 -27 -210 -40 -255 -12 -43 -30 -51 -30 -14
0 48 -19 35 -53 -36 -20 -40 -59 -105 -87 -143 -67 -91 -105 -165 -131 -262
-18 -66 -21 -93 -15 -173 4 -52 11 -113 17 -135 10 -36 12 -38 24 -22 7 10 16
34 20 54 8 47 62 153 76 153 8 0 9 -15 4 -47 -12 -82 -7 -284 10 -363 8 -41
41 -149 72 -239 30 -90 64 -209 73 -265 l18 -101 17 40 c32 71 32 258 1 470
-14 99 -29 229 -31 289 -6 122 8 216 33 216 12 0 13 -11 8 -57 -3 -32 -6 -107
-7 -168 0 -126 16 -191 95 -380 59 -143 69 -212 50 -353 -17 -128 -18 -251 -3
-301 14 -47 60 -115 81 -119 15 -3 15 1 6 35 -23 76 -13 333 12 333 5 0 12
-17 15 -37 18 -106 61 -238 105 -328 45 -92 136 -223 146 -212 2 2 -7 37 -21
78 -52 155 -108 440 -89 458 3 3 13 -4 21 -17 9 -12 19 -22 23 -22 4 0 10 36
14 81 11 127 60 329 82 336 11 4 58 -138 73 -222 5 -27 13 -87 16 -132 8 -86
17 -101 37 -58 17 39 29 30 22 -17 -21 -151 -65 -332 -111 -456 -20 -52 81 73
131 162 54 97 99 232 121 359 3 20 10 37 14 37 5 0 14 -35 21 -77 13 -74 6
-196 -16 -270 -15 -54 49 -3 80 62 30 63 38 139 25 233 -6 48 -14 137 -16 198
-5 121 -1 139 80 334 55 130 68 192 68 310 -1 58 -4 131 -7 163 -6 47 -4 57 9
57 25 0 38 -87 32 -213 -5 -109 -9 -145 -40 -352 -19 -128 -19 -304 0 -374 21
-79 31 -82 39 -9 9 84 27 151 87 326 80 235 96 343 79 515 -6 60 -8 112 -5
116 13 12 45 -47 72 -131 15 -48 32 -86 38 -85 17 6 35 101 35 191 0 150 -32
238 -147 404 -35 51 -78 123 -96 160 l-31 67 -10 -32 c-5 -18 -13 -33 -17 -33
-14 0 -38 99 -52 215 l-13 110 -22 -35z m-439 -309 c23 -15 76 -40 117 -55
102 -37 128 -61 73 -68 -22 -2 -30 -11 -39 -38 -14 -41 -34 -52 -34 -17 0 55
-85 116 -164 117 -88 0 -176 -53 -176 -106 0 -45 -35 -17 -43 35 -2 11 -6 24
-10 27 -17 18 3 30 125 74 31 12 67 30 80 40 13 11 24 19 26 20 2 0 22 -13 45
-29z m90 -976 c-20 -71 -21 -74 -33 -55 -17 27 -10 65 16 93 14 16 28 27 29
25 2 -2 -4 -30 -12 -63z m-262 14 c19 -25 16 -83 -4 -76 -7 2 -32 74 -37 105
-1 11 27 -8 41 -29z"/>
</g>
</svg>
